# xmcd
#
# Track frame offsets:
#	150
#	13080
#	32119
#	69442
#	81954
#	110041
#	141105
#	161680
#	180392
#	197184
#
# Disc length: 2812 seconds
#
# Revision: 1
# Processed by: cddbd v1.5.2PL0 Copyright (c) Steve Scherf et al.
# Submitted via: audiograbber 1.83.01
#
DISCID=870afa0a
DTITLE=Halden Wofford and The Hi*Beams - Rocky Mountain Honky Tonk
DYEAR=2013
DGENRE=Honky Tonk
TTITLE0=Rocky Mountain Honky Tonk
TTITLE1=Beaver Hat Boogie
TTITLE2=Loser
TTITLE3=The Only Thing I Like
TTITLE4=Zombies!
TTITLE5=Pretty Boy Floyd
TTITLE6=Reclamation Day
TTITLE7=Superbird
TTITLE8=White Freightliner Blues
TTITLE9=Brown Mountain Slave
EXTD=
EXTT0=
EXTT1=
EXTT2=
EXTT3=
EXTT4=
EXTT5=
EXTT6=
EXTT7=
EXTT8=
EXTT9=
PLAYORDER=
